# xmcd
#
# Track frame offsets: 
#        150
#        32267
#        63169
#        96808
#        139007
#        177101
#        218651
#        262635
#        305139
#
# Disc length: 4574 seconds
#
# Revision: 8
# Processed by: cddbd v1.5.2PL0 Copyright (c) Steve Scherf et al.
# Submitted via: ExactAudioCopyFreeDBPlugin 1.0
#
DISCID=6c11dc09
DTITLE=Andreas Fröhlich - Eragon [CD16)
DYEAR=2005
DGENRE=Hörbuch
TTITLE0=Der Thronsaal des Zwergenkönigs (Teil 3)
TTITLE1=Der Thronsaal des Zwergenkönigs (Teil 4)
TTITLE2=Der Thronsaal des Zwergenkönigs (Teil 5)
TTITLE3=Aryas Prüfung (Teil 1)
TTITLE4=Aryas Prüfung (Teil 2)
TTITLE5=Aryas Prüfung (Teil 3)
TTITLE6=Aryas Prüfung (Teil 4)
TTITLE7=Die Schatten werden länger (Teil 1)
TTITLE8=Die Schatten werden länger (Teil 2)
EXTD=
EXTT0=
EXTT1=
EXTT2=
EXTT3=
EXTT4=
EXTT5=
EXTT6=
EXTT7=
EXTT8=
PLAYORDER=
